<?xml version="1.0" standalone="no"?>
<!DOCTYPE svg PUBLIC "-//W3C//DTD SVG 20010904//EN"
 "http://www.w3.org/TR/2001/REC-SVG-20010904/DTD/svg10.dtd">
<svg version="1.0" xmlns="http://www.w3.org/2000/svg"
 width="152.000000pt" height="152.000000pt" viewBox="0 0 152.000000 152.000000"
 preserveAspectRatio="xMidYMid meet">
<metadata>
Created by potrace 1.14, written by Peter Selinger 2001-2017
</metadata>
<g transform="translate(0.000000,152.000000) scale(0.100000,-0.100000)"
fill="#000000" stroke="none">
<path d="M1179 1343 c-1 -5 -1 -11 -1 -14 1 -4 -21 -7 -49 -8 -29 0 -48 3 -44
9 3 5 -7 3 -21 -5 -20 -10 -33 -11 -47 -3 -14 7 -17 7 -13 -1 9 -14 -7 -14
-21 0 -7 7 -10 -3 -10 -36 0 -25 2 -43 4 -41 9 8 86 -24 99 -42 15 -19 19
-102 5 -102 -5 0 -7 -9 -4 -20 3 -12 -1 -22 -11 -26 -9 -3 -14 -10 -11 -14 7
-12 -26 -101 -35 -95 -5 3 -12 0 -16 -6 -5 -8 -3 -9 6 -4 10 6 11 3 6 -16 -4
-13 -10 -34 -13 -46 -3 -13 -10 -23 -15 -23 -5 0 -6 -5 -3 -10 4 -6 3 -16 -2
-23 -5 -7 -15 -31 -23 -54 -7 -24 -17 -43 -21 -43 -5 0 -6 -7 -3 -15 4 -9 0
-15 -9 -15 -9 0 -19 -4 -22 -10 -3 -5 0 -7 8 -4 12 4 13 -1 4 -35 -6 -23 -15
-41 -19 -41 -4 0 -5 -7 -2 -15 4 -8 2 -15 -3 -15 -5 0 -9 -9 -9 -20 0 -11 4
-20 9 -20 5 0 5 -10 2 -21 -5 -16 -4 -19 6 -14 9 6 11 4 6 -7 -4 -11 1 -18 14
-21 12 -3 22 0 26 9 3 8 9 12 14 9 4 -3 6 3 4 14 -2 10 2 29 9 43 7 13 11 29
8 36 -2 6 3 12 12 12 8 0 18 5 22 12 4 7 3 8 -4 4 -16 -10 -15 0 4 51 9 23 20
40 25 38 4 -3 11 0 15 6 4 8 3 9 -4 5 -7 -4 -12 -1 -12 8 0 9 5 16 10 16 6 0
9 3 8 8 -1 4 4 26 11 50 8 29 16 40 24 35 7 -4 7 0 -2 10 -9 11 -10 17 -2 17
6 0 11 9 11 20 0 11 6 23 14 26 8 3 13 11 10 19 -3 7 2 20 12 29 9 9 14 19 11
23 -7 6 23 86 36 94 5 3 8 9 8 13 -3 19 2 27 30 55 17 17 35 29 40 25 5 -3 9
-2 8 3 -1 4 1 16 6 26 5 13 10 15 15 7 5 -8 10 -2 14 15 5 18 12 25 22 21 8
-3 13 -2 11 2 -7 11 17 29 36 26 9 -1 15 2 11 7 -3 5 -10 7 -15 4 -10 -7 -30
35 -22 48 4 6 -45 12 -76 8 -7 -2 -10 2 -7 8 4 5 2 13 -4 16 -6 4 -9 1 -8 -7
2 -9 -8 -13 -32 -13 -23 0 -34 4 -32 13 1 6 0 12 -3 12 -3 0 -6 -3 -6 -7z"/>
<path d="M315 1311 c-5 -16 -15 -20 -55 -19 -27 0 -54 -3 -61 -8 -8 -5 -10 -3
-4 7 7 11 5 11 -10 -1 -10 -8 -21 -15 -24 -15 -3 0 -5 -6 -3 -12 2 -7 -2 -13
-8 -13 -7 0 -8 -5 -3 -12 8 -13 9 -18 12 -40 1 -10 3 -10 10 0 10 17 62 8 77
-13 6 -8 14 -15 18 -15 4 0 13 -6 20 -12 11 -11 11 -15 -2 -24 -12 -9 -12 -13
-2 -19 9 -5 11 -4 6 3 -5 8 6 12 36 13 24 1 57 2 73 3 17 1 33 -3 37 -9 5 -6
8 -5 8 3 0 7 5 10 10 7 6 -3 10 0 10 7 0 9 3 9 10 -2 7 -11 12 -12 21 -3 6 6
18 9 25 6 17 -6 64 23 64 40 0 8 -4 7 -11 -3 -8 -12 -10 -12 -7 5 2 13 21 26
58 40 50 19 55 24 55 52 1 30 -1 31 -46 35 -26 2 -45 0 -43 -4 6 -9 -48 -4
-65 6 -9 6 -12 5 -7 -2 9 -14 -54 -13 -73 2 -11 8 -13 8 -7 -1 5 -9 -1 -12
-23 -9 -18 2 -31 -1 -31 -8 0 -6 -5 -4 -10 4 -8 13 -11 13 -19 1 -11 -17 -32
-5 -24 14 3 8 3 15 0 15 -3 0 -8 -9 -12 -19z"/>
<path d="M696 1273 c-6 -14 -5 -15 5 -6 7 7 10 15 7 18 -3 3 -9 -2 -12 -12z"/>
<path d="M674 1228 c-19 -23 -19 -23 2 -5 11 9 24 14 29 10 4 -5 5 -2 1 5 -9
16 -10 16 -32 -10z"/>
<path d="M990 1216 c7 -7 13 -7 20 0 6 6 3 10 -10 10 -13 0 -16 -4 -10 -10z"/>
<path d="M630 1209 c0 -5 5 -7 10 -4 6 3 10 8 10 11 0 2 -4 4 -10 4 -5 0 -10
-5 -10 -11z"/>
<path d="M594 1199 c-4 -7 -3 -9 4 -5 5 3 13 0 15 -6 4 -9 6 -10 6 -1 1 17
-16 25 -25 12z"/>
<path d="M1053 1167 c0 -8 6 -14 14 -14 9 0 10 4 2 14 -6 7 -12 13 -14 13 -1
0 -2 -6 -2 -13z"/>
<path d="M233 1155 c0 -8 4 -12 9 -9 5 3 6 10 3 15 -9 13 -12 11 -12 -6z"/>
<path d="M615 1161 c-3 -5 -2 -12 3 -15 5 -3 9 1 9 9 0 17 -3 19 -12 6z"/>
<path d="M356 1122 c-3 -5 1 -9 9 -9 8 0 12 4 9 9 -3 4 -7 8 -9 8 -2 0 -6 -4
-9 -8z"/>
<path d="M553 1105 c0 -8 4 -12 9 -9 5 3 6 10 3 15 -9 13 -12 11 -12 -6z"/>
<path d="M376 1031 c3 -13 2 -21 -3 -18 -5 3 -15 2 -23 -4 -8 -5 -10 -9 -5 -9
13 0 13 -59 0 -80 -8 -13 -7 -13 8 -1 9 7 14 18 10 24 -4 6 -1 7 6 2 7 -4 11
-16 8 -26 -3 -10 -1 -17 3 -16 4 1 8 -2 8 -8 0 -5 -4 -9 -10 -7 -5 1 -7 -2 -3
-8 3 -6 10 -8 15 -5 5 3 61 7 124 10 100 4 119 7 138 25 17 16 18 19 6 15 -13
-5 -20 0 -28 20 -12 32 -13 45 -1 27 7 -11 9 -11 14 2 4 9 3 15 -1 15 -20 -3
-28 4 -41 32 -9 21 -16 27 -21 19 -5 -8 -20 -11 -39 -8 -17 2 -31 1 -31 -3 0
-9 -57 -6 -66 4 -4 4 -12 7 -18 7 -6 0 -4 -5 4 -10 12 -8 9 -10 -12 -10 -15 0
-32 8 -38 18 -9 14 -10 13 -4 -7z"/>
<path d="M470 1046 c0 -2 7 -7 16 -10 8 -3 12 -2 9 4 -6 10 -25 14 -25 6z"/>
<path d="M1186 1038 c3 -5 10 -6 15 -3 13 9 11 12 -6 12 -8 0 -12 -4 -9 -9z"/>
<path d="M1170 940 c0 -5 5 -10 11 -10 5 0 7 5 4 10 -3 6 -8 10 -11 10 -2 0
-4 -4 -4 -10z"/>
<path d="M340 886 c0 -2 8 -10 18 -17 15 -13 16 -12 3 4 -13 16 -21 21 -21 13z"/>
<path d="M966 882 c-3 -5 1 -9 9 -9 8 0 12 4 9 9 -3 4 -7 8 -9 8 -2 0 -6 -4
-9 -8z"/>
<path d="M1113 873 c0 -9 4 -10 14 -2 7 6 13 12 13 14 0 1 -6 2 -13 2 -8 0
-14 -6 -14 -14z"/>
<path d="M428 863 c6 -2 18 -2 25 0 6 3 1 5 -13 5 -14 0 -19 -2 -12 -5z"/>
<path d="M588 863 c7 -3 16 -2 19 1 4 3 -2 6 -13 5 -11 0 -14 -3 -6 -6z"/>
<path d="M629 857 c6 -8 7 -18 3 -22 -4 -5 -1 -5 6 -1 10 6 10 11 1 22 -6 8
-14 14 -16 14 -3 0 0 -6 6 -13z"/>
<path d="M490 800 c0 -5 5 -10 11 -10 5 0 7 5 4 10 -3 6 -8 10 -11 10 -2 0 -4
-4 -4 -10z"/>
<path d="M614 798 c1 -7 5 -18 9 -25 9 -15 -65 -13 -75 2 -5 6 -8 5 -8 -3 0
-7 -5 -10 -11 -6 -6 3 -15 0 -20 -7 -7 -12 -9 -11 -9 1 0 13 -1 13 -10 0 -8
-12 -12 -13 -19 -2 -6 11 -10 9 -14 -7 -3 -12 -1 -21 4 -21 5 0 8 -3 7 -7 -1
-5 4 -21 10 -36 7 -16 9 -34 5 -40 -3 -7 -3 -9 2 -5 4 4 13 0 20 -8 9 -13 31
-17 98 -17 48 0 87 -3 87 -5 0 -3 -7 -13 -15 -22 -13 -14 -13 -17 0 -17 8 0
12 3 10 6 -6 11 20 39 40 43 34 5 33 17 -2 89 -33 65 -52 85 -54 57 0 -7 -4
-4 -9 7 -8 19 -9 19 -9 1 -1 -15 -4 -16 -16 -6 -8 7 -13 16 -10 20 3 5 1 11
-4 14 -5 4 -8 0 -7 -6z"/>
<path d="M430 679 c0 -5 5 -7 10 -4 6 3 10 8 10 11 0 2 -4 4 -10 4 -5 0 -10
-5 -10 -11z"/>
<path d="M740 686 c0 -2 8 -10 18 -17 15 -13 16 -12 3 4 -13 16 -21 21 -21 13z"/>
<path d="M1033 665 c0 -8 4 -12 9 -9 5 3 6 10 3 15 -9 13 -12 11 -12 -6z"/>
<path d="M496 598 c3 -5 10 -6 15 -3 13 9 11 12 -6 12 -8 0 -12 -4 -9 -9z"/>
<path d="M599 593 c-13 -17 -13 -17 6 -3 11 8 22 16 24 17 2 2 0 3 -6 3 -6 0
-17 -8 -24 -17z"/>
<path d="M716 598 c3 -5 10 -6 15 -3 13 9 11 12 -6 12 -8 0 -12 -4 -9 -9z"/>
<path d="M640 591 c0 -7 -5 -9 -12 -5 -7 5 -8 3 -3 -5 5 -9 10 -10 18 -2 6 6
8 14 4 18 -4 3 -7 1 -7 -6z"/>
<path d="M856 578 c3 -5 10 -6 15 -3 13 9 11 12 -6 12 -8 0 -12 -4 -9 -9z"/>
<path d="M750 556 c7 -7 13 -7 20 0 6 6 3 10 -10 10 -13 0 -16 -4 -10 -10z"/>
<path d="M590 546 c0 -2 7 -7 16 -10 8 -3 12 -2 9 4 -6 10 -25 14 -25 6z"/>
<path d="M728 520 c19 -22 14 -32 -9 -19 -15 8 -19 8 -15 0 4 -6 2 -11 -3 -11
-6 0 -11 5 -11 10 0 6 -5 10 -11 10 -5 0 -7 -6 -3 -12 5 -9 2 -9 -9 1 -13 10
-17 10 -17 1 0 -8 -4 -9 -12 -3 -7 5 -20 9 -28 8 -22 -2 -70 -23 -70 -31 0 -4
3 -4 7 -1 3 4 15 -8 26 -25 12 -21 15 -34 8 -36 -12 -4 -15 -23 -3 -21 22 4
30 -3 27 -21 -3 -15 2 -20 16 -20 11 0 18 -4 15 -8 -3 -5 1 -9 9 -9 8 0 12 3
10 7 -6 9 88 5 103 -4 7 -4 12 -3 12 2 0 12 60 10 60 -2 0 -6 5 -3 11 6 5 10
6 30 2 45 -4 15 -8 30 -8 33 -9 48 -40 91 -61 83 -8 -3 -25 3 -37 13 -12 10
-16 12 -9 4z"/>
<path d="M873 472 c0 -12 5 -22 9 -22 11 0 10 12 -2 30 -7 12 -9 10 -7 -8z"/>
<path d="M830 456 c0 -2 7 -9 15 -16 9 -7 15 -8 15 -2 0 5 -7 12 -15 16 -8 3
-15 4 -15 2z"/>
<path d="M955 449 c-4 -6 -5 -12 -2 -15 2 -3 7 2 10 11 7 17 1 20 -8 4z"/>
<path d="M920 435 c-7 -9 -11 -17 -9 -20 3 -2 10 5 17 15 14 24 10 26 -8 5z"/>
<path d="M875 430 c-3 -5 -3 -10 1 -10 4 0 -1 -10 -12 -22 -19 -23 -19 -23 2
-5 11 9 21 24 21 32 0 18 -3 19 -12 5z"/>
<path d="M575 371 c-3 -5 -2 -12 3 -15 5 -3 9 1 9 9 0 17 -3 19 -12 6z"/>
<path d="M869 363 c-13 -16 -12 -17 4 -4 9 7 17 15 17 17 0 8 -8 3 -21 -13z"/>
<path d="M710 321 c0 -5 8 -15 18 -22 15 -12 16 -12 5 2 -7 9 -10 19 -6 22 3
4 1 7 -5 7 -7 0 -12 -4 -12 -9z"/>
<path d="M794 305 c0 -28 8 -24 13 5 2 11 -1 20 -5 20 -4 0 -8 -11 -8 -25z"/>
<path d="M760 300 c-9 -6 -10 -10 -3 -10 6 0 15 5 18 10 8 12 4 12 -15 0z"/>
<path d="M655 280 c3 -5 8 -10 11 -10 2 0 4 5 4 10 0 6 -5 10 -11 10 -5 0 -7
-4 -4 -10z"/>
<path d="M680 243 c0 -7 -7 -13 -15 -13 -13 0 -14 -4 -4 -21 6 -12 7 -19 2
-16 -5 3 -9 -5 -9 -18 0 -13 4 -21 8 -19 5 3 5 11 2 17 -4 7 -4 9 0 5 4 -3 7
-9 7 -12 -1 -4 10 -18 24 -32 14 -14 25 -29 25 -34 0 -6 3 -9 8 -9 24 4 34 -2
27 -19 -5 -14 -2 -13 13 4 11 11 25 37 33 57 7 20 16 37 19 37 4 0 6 14 6 32
l-1 32 -65 0 c-36 0 -68 4 -72 10 -5 7 -8 7 -8 -1z"/>
<path d="M690 100 c0 -5 5 -10 11 -10 5 0 7 5 4 10 -3 6 -8 10 -11 10 -2 0 -4
-4 -4 -10z"/>
</g>
</svg>
