<svg width="2519" height="1328" viewBox="0 0 2519 1328" fill="none" xmlns="http://www.w3.org/2000/svg">
<path d="M1065.06 939.665V932.16H1074.19C1082.17 932.16 1088.25 930.943 1092.44 928.51C1096.77 925.941 1099.95 922.493 1101.98 918.166C1103.19 915.326 1103.8 906.808 1103.8 892.611V711.696C1103.8 697.634 1103.06 688.846 1101.57 685.33C1100.08 681.815 1097.04 678.772 1092.44 676.203C1087.98 673.499 1081.9 672.147 1074.19 672.147H1065.06V664.643H1188.17C1221.03 664.643 1247.46 669.105 1267.48 678.029C1291.95 688.981 1310.47 705.544 1323.05 727.719C1335.76 749.894 1342.11 774.976 1342.11 802.965C1342.11 822.3 1339 840.148 1332.78 856.509C1326.56 872.734 1318.52 886.188 1308.65 896.87C1298.78 907.416 1287.35 915.935 1274.37 922.425C1261.53 928.78 1245.77 933.715 1227.11 937.231C1218.87 938.853 1205.89 939.665 1188.17 939.665H1065.06ZM1169.92 680.26V894.842C1169.92 906.2 1170.46 913.163 1171.54 915.732C1172.62 918.301 1174.45 920.262 1177.02 921.614C1180.67 923.642 1185.94 924.656 1192.84 924.656C1215.42 924.656 1232.66 916.949 1244.56 901.535C1260.78 880.712 1268.9 848.396 1268.9 804.587C1268.9 769.297 1263.35 741.105 1252.26 720.012C1243.48 703.516 1232.19 692.294 1218.39 686.344C1208.66 682.153 1192.5 680.124 1169.92 680.26Z" fill="black"/>
<path d="M1470.09 814.323V891.394C1470.09 906.267 1470.97 915.664 1472.73 919.586C1474.62 923.371 1477.87 926.414 1482.46 928.712C1487.06 931.011 1495.65 932.16 1508.22 932.16V939.665H1367.47V932.16C1380.17 932.16 1388.76 931.011 1393.22 928.712C1397.82 926.279 1401 923.169 1402.76 919.383C1404.65 915.597 1405.59 906.267 1405.59 891.394V712.913C1405.59 698.04 1404.65 688.71 1402.76 684.924C1401 681.003 1397.82 677.893 1393.22 675.595C1388.63 673.296 1380.04 672.147 1367.47 672.147V664.643H1495.24C1528.5 664.643 1552.84 666.941 1568.26 671.538C1583.67 676.136 1596.24 684.654 1605.98 697.094C1615.71 709.398 1620.58 723.866 1620.58 740.497C1620.58 760.779 1613.28 777.545 1598.68 790.796C1589.35 799.179 1576.3 805.466 1559.53 809.658L1625.65 902.752C1634.31 914.786 1640.46 922.29 1644.11 925.264C1649.65 929.456 1656.08 931.755 1663.38 932.16V939.665H1576.77L1488.14 814.323H1470.09ZM1470.09 679.448V799.923H1481.65C1500.45 799.923 1514.51 798.232 1523.84 794.852C1533.17 791.337 1540.47 785.117 1545.74 776.193C1551.15 767.134 1553.86 755.37 1553.86 740.902C1553.86 719.944 1548.92 704.463 1539.05 694.457C1529.31 684.451 1513.56 679.448 1491.79 679.448H1470.09Z" fill="black"/>
<path d="M1669.66 664.643H1811.64V672.147H1804.54C1793.86 672.147 1786.49 673.296 1782.43 675.595C1778.51 677.758 1775.67 680.8 1773.91 684.722C1772.29 688.643 1771.48 698.446 1771.48 714.13V848.802C1771.48 873.411 1773.31 889.704 1776.96 897.681C1780.74 905.659 1786.89 912.284 1795.41 917.557C1803.93 922.831 1814.68 925.467 1827.66 925.467C1842.53 925.467 1855.18 922.155 1865.59 915.529C1876.13 908.769 1883.98 899.507 1889.11 887.743C1894.39 875.98 1897.02 855.495 1897.02 826.289V714.13C1897.02 701.826 1895.74 693.037 1893.17 687.764C1890.6 682.491 1887.36 678.84 1883.44 676.812C1877.35 673.702 1868.76 672.147 1857.68 672.147V664.643H1952.8V672.147H1947.12C1939.41 672.147 1932.99 673.702 1927.85 676.812C1922.71 679.922 1919 684.586 1916.7 690.806C1914.94 695.133 1914.06 702.908 1914.06 714.13V818.582C1914.06 850.898 1911.9 874.222 1907.57 888.554C1903.38 902.887 1893.04 916.07 1876.54 928.104C1860.04 940.138 1837.53 946.155 1809 946.155C1785.2 946.155 1766.81 942.977 1753.83 936.622C1736.12 927.969 1723.61 916.881 1716.31 903.36C1709.01 889.839 1705.36 871.653 1705.36 848.802V714.13C1705.36 698.31 1704.48 688.508 1702.72 684.722C1700.97 680.8 1697.92 677.691 1693.6 675.392C1689.27 673.093 1681.29 672.012 1669.66 672.147V664.643Z" fill="black"/>
<path d="M2133.11 769.905L2229.85 890.988C2243.51 908.025 2255.27 919.586 2265.14 925.67C2272.31 929.997 2279.88 932.16 2287.86 932.16V939.665H2144.67V932.16C2153.73 931.349 2159.54 929.929 2162.11 927.901C2164.81 925.873 2166.16 923.371 2166.16 920.397C2166.16 914.718 2159.94 904.036 2147.51 888.351L2084.43 809.049L2074.29 817.568V892.611C2074.29 906.943 2075.1 915.867 2076.72 919.383C2078.34 922.898 2081.45 925.941 2086.05 928.51C2090.65 930.943 2098.02 932.16 2108.16 932.16V939.665H1969.43V932.16H1978.56C1986.53 932.16 1992.96 930.741 1997.83 927.901C2001.34 926.008 2004.04 922.763 2005.94 918.166C2007.43 914.921 2008.17 906.402 2008.17 892.611V711.696C2008.17 697.634 2007.43 688.846 2005.94 685.33C2004.45 681.815 2001.41 678.772 1996.81 676.203C1992.35 673.499 1986.26 672.147 1978.56 672.147H1969.43V664.643H2106.33V672.147C2097 672.147 2089.9 673.499 2085.04 676.203C2081.52 678.096 2078.75 681.274 2076.72 685.736C2075.1 689.116 2074.29 697.77 2074.29 711.696V797.286L2176.31 714.739C2190.5 703.246 2197.6 694.051 2197.6 687.155C2197.6 682.017 2194.69 677.961 2188.88 674.986C2185.91 673.499 2178.54 672.553 2166.77 672.147V664.643H2274.06V672.147C2264.46 672.823 2256.89 674.581 2251.35 677.42C2245.94 680.124 2233.37 689.454 2213.62 705.409L2133.11 769.905Z" fill="black"/>
<path d="M1235.97 477.511V561.112C1235.97 574.913 1236.7 583.538 1238.16 586.988C1239.75 590.438 1242.74 593.491 1247.12 596.145C1251.63 598.666 1257.67 599.927 1265.23 599.927H1274.19V607.291H1133.06V599.927H1142.02C1149.85 599.927 1156.15 598.533 1160.93 595.746C1164.38 593.889 1167.03 590.704 1168.89 586.192C1170.35 583.007 1171.08 574.647 1171.08 561.112V383.56C1171.08 369.759 1170.35 361.134 1168.89 357.683C1167.43 354.233 1164.45 351.247 1159.93 348.726C1155.56 346.072 1149.58 344.745 1142.02 344.745H1133.06V337.38H1274.19V344.745H1265.23C1257.4 344.745 1251.1 346.138 1246.32 348.925C1242.87 350.783 1240.15 353.968 1238.16 358.48C1236.7 361.664 1235.97 370.024 1235.97 383.56V459.995H1331.32V383.56C1331.32 369.759 1330.59 361.134 1329.13 357.683C1327.67 354.233 1324.68 351.247 1320.17 348.726C1315.66 346.072 1309.62 344.745 1302.06 344.745H1293.3V337.38H1434.22V344.745H1425.47C1417.5 344.745 1411.2 346.138 1406.56 348.925C1403.11 350.783 1400.39 353.968 1398.4 358.48C1396.94 361.664 1396.21 370.024 1396.21 383.56V561.112C1396.21 574.913 1396.94 583.538 1398.4 586.988C1399.86 590.438 1402.84 593.491 1407.35 596.145C1411.86 598.666 1417.9 599.927 1425.47 599.927H1434.22V607.291H1293.3V599.927H1302.06C1310.02 599.927 1316.32 598.533 1320.97 595.746C1324.42 593.889 1327.14 590.704 1329.13 586.192C1330.59 583.007 1331.32 574.647 1331.32 561.112V477.511H1235.97Z" fill="black"/>
<path d="M1611.38 530.458H1516.03L1504.69 556.733C1500.97 565.491 1499.11 572.723 1499.11 578.429C1499.11 585.993 1502.17 591.566 1508.27 595.149C1511.85 597.273 1520.68 598.865 1534.74 599.927V607.291H1444.97V599.927C1454.66 598.467 1462.62 594.486 1468.86 587.984C1475.1 581.349 1482.79 567.747 1491.95 547.178L1588.49 331.807H1592.27L1689.61 553.15C1698.89 574.116 1706.52 587.32 1712.5 592.761C1717.01 596.874 1723.38 599.263 1731.6 599.927V607.291H1601.03V599.927H1606.4C1616.89 599.927 1624.25 598.467 1628.5 595.547C1631.42 593.424 1632.88 590.372 1632.88 586.391C1632.88 584.003 1632.48 581.548 1631.68 579.026C1631.42 577.832 1629.43 572.856 1625.71 564.098L1611.38 530.458ZM1604.61 515.729L1564.4 422.773L1523 515.729H1604.61Z" fill="black"/>
<path d="M1848.45 352.906V463.777H1856.21C1868.15 463.777 1877.91 461.985 1885.47 458.402C1893.03 454.819 1899.4 448.782 1904.58 440.289C1909.89 431.796 1913.34 420.318 1914.93 405.853H1921.9V541.406H1914.93C1912.41 515.795 1905.51 498.942 1894.23 490.847C1883.08 482.62 1870.41 478.506 1856.21 478.506H1848.45V561.112C1848.45 574.913 1849.18 583.538 1850.64 586.988C1852.23 590.438 1855.21 593.491 1859.59 596.145C1864.11 598.666 1870.14 599.927 1877.71 599.927H1886.66V607.291H1745.54V599.927H1754.5C1762.32 599.927 1768.63 598.533 1773.4 595.746C1776.86 593.889 1779.51 590.704 1781.37 586.192C1782.83 583.007 1783.56 574.647 1783.56 561.112V383.56C1783.56 369.759 1782.83 361.134 1781.37 357.683C1779.91 354.233 1776.92 351.247 1772.41 348.726C1768.03 346.072 1762.06 344.745 1754.5 344.745H1745.54V337.38H1973.25V414.811H1965.09C1963.23 396.631 1958.45 383.162 1950.76 374.403C1943.19 365.645 1932.18 359.475 1917.72 355.892C1909.75 353.901 1895.02 352.906 1873.53 352.906H1848.45Z" fill="black"/>
<path d="M2242.76 337.38V410.431H2235.6C2231.35 393.579 2226.64 381.503 2221.47 374.204C2216.29 366.773 2209.19 360.868 2200.17 356.489C2195.12 354.1 2186.3 352.906 2173.69 352.906H2153.59V561.112C2153.59 574.913 2154.32 583.538 2155.78 586.988C2157.37 590.438 2160.36 593.491 2164.74 596.145C2169.25 598.666 2175.35 599.927 2183.05 599.927H2192.01V607.291H2050.68V599.927H2059.64C2067.47 599.927 2073.77 598.533 2078.55 595.746C2082 593.889 2084.72 590.704 2086.71 586.192C2088.17 583.007 2088.9 574.647 2088.9 561.112V352.906H2069.39C2051.21 352.906 2038.01 356.754 2029.78 364.451C2018.24 375.2 2010.94 390.526 2007.89 410.431H2000.32V337.38H2242.76Z" fill="black"/>
<g filter="url(#filter0_di_0_1)">
<path d="M1055.79 275.926V307.635C1027.94 312.223 1002.98 326.944 981.12 352.181C965.258 370.917 941.657 415.081 910.125 484.673L771.095 791.358L749.494 741.554L864.471 485.628C882.848 444.333 894.262 416.802 898.325 402.845C902.58 388.889 904.708 377.035 904.708 367.094C904.708 355.814 901.613 345.872 895.617 337.077C889.426 328.474 880.721 321.783 868.92 317.194C852.67 310.885 831.198 307.635 804.308 307.635V275.926H1055.79ZM734.827 871.36L727.548 887.416H550.517L512.644 800.053H703.9L713.386 821.925L734.827 871.36ZM687.679 975.365L646.646 1065.88H627.882L588.643 975.365H687.679ZM474.517 712.104L436.645 624.741H627.864L665.755 712.104H474.517ZM398.518 536.792L365.564 460.775C363.888 456.907 362.243 453.128 360.625 449.429H551.828L589.719 536.792H398.518ZM319.699 361.48C312.092 346.807 306.16 336.944 301.919 331.916C291.086 319.107 270.774 311.077 240.983 307.635V275.927H607.763V307.635H595.382C562.109 307.635 539.281 311.841 527.288 320.254C518.583 325.798 514.327 334.21 514.327 345.299C514.327 350.11 514.989 355.482 516.445 361.48H319.699Z" fill="white"/>
</g>
<defs>
<filter id="filter0_di_0_1" x="235.983" y="275.926" width="854.809" height="829.952" filterUnits="userSpaceOnUse" color-interpolation-filters="sRGB">
<feFlood flood-opacity="0" result="BackgroundImageFix"/>
<feColorMatrix in="SourceAlpha" type="matrix" values="0 0 0 0 0 0 0 0 0 0 0 0 0 0 0 0 0 0 127 0" result="hardAlpha"/>
<feOffset dx="15" dy="20"/>
<feGaussianBlur stdDeviation="10"/>
<feComposite in2="hardAlpha" operator="out"/>
<feColorMatrix type="matrix" values="0 0 0 0 0 0 0 0 0 0 0 0 0 0 0 0 0 0 0.25 0"/>
<feBlend mode="normal" in2="BackgroundImageFix" result="effect1_dropShadow_0_1"/>
<feBlend mode="normal" in="SourceGraphic" in2="effect1_dropShadow_0_1" result="shape"/>
<feColorMatrix in="SourceAlpha" type="matrix" values="0 0 0 0 0 0 0 0 0 0 0 0 0 0 0 0 0 0 127 0" result="hardAlpha"/>
<feOffset dx="10" dy="20"/>
<feGaussianBlur stdDeviation="10"/>
<feComposite in2="hardAlpha" operator="arithmetic" k2="-1" k3="1"/>
<feColorMatrix type="matrix" values="0 0 0 0 0 0 0 0 0 0 0 0 0 0 0 0 0 0 0.3 0"/>
<feBlend mode="normal" in2="shape" result="effect2_innerShadow_0_1"/>
</filter>
</defs>
</svg>
